<svg width="60" height="60" viewBox="0 0 60 60" fill="none" xmlns="http://www.w3.org/2000/svg">
<g clip-path="url(#clip0_43_2)">
<path d="M41.46 39.27C42.1256 37.6516 43.1663 36.2147 44.4964 35.0776C45.8265 33.9405 47.4078 33.1358 49.11 32.73C48.84 33 46.38 38.19 46.38 38.19L60 30L46.35 21.81L49.08 27.27C47.0803 27.4389 45.1333 27.9995 43.35 28.92C40.8273 30.3183 38.7482 32.3973 37.35 34.92C36.4341 37.0645 35.2442 39.0813 33.81 40.92L31.92 39L33.27 37.65L28.65 36.87L29.43 41.49L30.78 40.14L32.73 42C29.8679 44.5735 26.2212 46.1062 22.38 46.35V43.62H24.57L21.84 39.84L19.11 43.62H21.3V46.35C17.4193 46.2421 13.7182 44.6911 10.92 42L12.84 40.08L14.19 41.43L15 36.84L10.38 37.62L11.73 38.97L9.81 40.89C7.2365 38.0279 5.70385 34.3813 5.46 30.54H8.19V32.73L12 30L8.19 27.27V29.46H5.46C5.57529 25.5897 7.12578 21.9006 9.81 19.11L11.73 21L10.38 22.35L15 23.16L14.22 18.54L12.87 19.89L10.92 18C13.7821 15.4265 17.4288 13.8939 21.27 13.65V16.38H19.08L21.81 20.16L24.54 16.38H22.35V13.65C26.2307 13.7579 29.9318 15.3089 32.73 18L30.81 19.92L29.46 18.57L28.68 23.19L33.27 22.35L31.92 21L33.84 19.08L37.65 15C34.454 11.5838 30.2467 9.28245 25.6462 8.43394C21.0456 7.58542 16.2942 8.23448 12.0898 10.2858C7.88537 12.3371 4.4495 15.6825 2.2868 19.8307C0.124098 23.9789 -0.651448 28.7113 0.0740604 33.3329C0.799569 37.9544 2.98789 42.2216 6.31765 45.5076C9.6474 48.7935 13.9431 50.9252 18.5738 51.5896C23.2046 52.2539 27.9263 51.4158 32.0456 49.1984C36.1648 46.981 39.4645 43.5012 41.46 39.27Z" fill="#310A31"/>
<path d="M14.4 30C14.4 34.1421 17.7579 37.5 21.9 37.5C26.0422 37.5 29.4 34.1421 29.4 30C29.4 25.8579 26.0422 22.5 21.9 22.5C17.7579 22.5 14.4 25.8579 14.4 30Z" fill="#310A31"/>
</g>
<defs>
<clipPath id="clip0_43_2">
<rect width="60" height="60" fill="white" transform="matrix(0 1 -1 0 60 0)"/>
</clipPath>
</defs>
</svg>
