<svg width="230" height="66" viewBox="0 0 230 66" fill="none" xmlns="http://www.w3.org/2000/svg">
<g clip-path="url(#clip0_43_10)">
<path d="M58.46 42.27C59.1256 40.6516 60.1663 39.2147 61.4964 38.0776C62.8265 36.9405 64.4078 36.1358 66.11 35.73C65.84 36 63.38 41.19 63.38 41.19L77 33L63.35 24.81L66.08 30.27C64.0803 30.4389 62.1333 30.9995 60.35 31.92C57.8273 33.3183 55.7482 35.3973 54.35 37.92C53.4341 40.0645 52.2442 42.0813 50.81 43.92L48.92 42L50.27 40.65L45.65 39.87L46.43 44.49L47.78 43.14L49.73 45C46.8679 47.5735 43.2212 49.1062 39.38 49.35V46.62H41.57L38.84 42.84L36.11 46.62H38.3V49.35C34.4193 49.2421 30.7182 47.6911 27.92 45L29.84 43.08L31.19 44.43L32 39.84L27.38 40.62L28.73 41.97L26.81 43.89C24.2365 41.0279 22.7039 37.3813 22.46 33.54H25.19V35.73L29 33L25.19 30.27V32.46H22.46C22.5753 28.5897 24.1258 24.9006 26.81 22.11L28.73 24L27.38 25.35L32 26.16L31.22 21.54L29.87 22.89L27.92 21C30.7821 18.4265 34.4288 16.8939 38.27 16.65V19.38H36.08L38.81 23.16L41.54 19.38H39.35V16.65C43.2307 16.7579 46.9318 18.3089 49.73 21L47.81 22.92L46.46 21.57L45.68 26.19L50.27 25.35L48.92 24L50.84 22.08L54.65 18C51.454 14.5838 47.2467 12.2824 42.6462 11.4339C38.0456 10.5854 33.2942 11.2345 29.0898 13.2858C24.8854 15.3371 21.4495 18.6825 19.2868 22.8307C17.1241 26.9789 16.3486 31.7113 17.0741 36.3329C17.7996 40.9544 19.9879 45.2216 23.3176 48.5076C26.6474 51.7935 30.9431 53.9252 35.5738 54.5896C40.2046 55.2539 44.9263 54.4158 49.0456 52.1984C53.1648 49.981 56.4645 46.5012 58.46 42.27Z" fill="#310A31"/>
<path d="M31.4 33C31.4 37.1421 34.7579 40.5 38.9 40.5C43.0422 40.5 46.4 37.1421 46.4 33C46.4 28.8579 43.0422 25.5 38.9 25.5C34.7579 25.5 31.4 28.8579 31.4 33Z" fill="#310A31"/>
</g>
<path d="M96.84 38.016H97.16L101.832 25.856L106.248 25.984L106.376 39.744L106.984 48H102.664L102.824 39.68L102.472 31.264L98.632 41.856L94.696 42.048L91.112 31.264L90.824 39.68L91.048 48H87.08L87.528 40.224L87.72 26.496L92.808 25.696L96.84 38.016ZM115.05 31.712L114.666 39.68L115.018 47.2L110.73 48L111.114 40.224L110.762 32.512L115.05 31.712ZM110.538 27.04C110.538 26.3147 110.816 25.6747 111.37 25.12C111.925 24.544 112.565 24.256 113.29 24.256C114.016 24.256 114.57 24.4587 114.954 24.864C115.338 25.248 115.53 25.8347 115.53 26.624C115.53 27.4133 115.253 28.096 114.698 28.672C114.165 29.2267 113.536 29.504 112.81 29.504C112.106 29.504 111.552 29.2693 111.146 28.8C110.741 28.3307 110.538 27.744 110.538 27.04ZM127.855 39.904C127.855 38.432 127.727 37.4507 127.471 36.96C127.215 36.4693 126.617 36.224 125.679 36.224C124.74 36.224 123.673 36.5973 122.479 37.344V39.68L122.831 47.2L118.543 48L118.927 40.224C118.841 37.3653 118.607 34.8053 118.223 32.544L122.095 31.712C122.244 32.9493 122.351 34.1547 122.415 35.328C122.735 34.9013 123.097 34.4853 123.503 34.08C123.908 33.6533 124.548 33.184 125.423 32.672C126.297 32.1387 127.215 31.872 128.175 31.872C129.156 31.872 129.977 32.256 130.639 33.024C131.3 33.7707 131.631 34.7947 131.631 36.096L131.439 39.68L131.791 47.36L127.471 48.16L127.855 39.904ZM139.613 31.712L139.229 39.68L139.581 47.2L135.293 48L135.677 40.224L135.325 32.512L139.613 31.712ZM135.101 27.04C135.101 26.3147 135.378 25.6747 135.933 25.12C136.487 24.544 137.127 24.256 137.853 24.256C138.578 24.256 139.133 24.4587 139.517 24.864C139.901 25.248 140.093 25.8347 140.093 26.624C140.093 27.4133 139.815 28.096 139.261 28.672C138.727 29.2267 138.098 29.504 137.373 29.504C136.669 29.504 136.114 29.2693 135.709 28.8C135.303 28.3307 135.101 27.744 135.101 27.04ZM158.059 38.016H158.379L163.051 25.856L167.467 25.984L167.595 39.744L168.203 48H163.883L164.043 39.68L163.691 31.264L159.851 41.856L155.915 42.048L152.331 31.264L152.043 39.68L152.267 48H148.299L148.747 40.224L148.939 26.496L154.027 25.696L158.059 38.016ZM171.021 41.312C171.021 38.5813 171.757 36.2667 173.229 34.368C174.701 32.4693 176.418 31.52 178.381 31.52C180.365 31.52 181.901 32.16 182.989 33.44C184.098 34.72 184.653 36.416 184.653 38.528C184.653 41.344 183.938 43.6907 182.509 45.568C181.101 47.424 179.32 48.352 177.165 48.352C175.394 48.352 173.922 47.6907 172.749 46.368C171.597 45.024 171.021 43.3387 171.021 41.312ZM181.069 40.192C181.069 37.0987 180.013 35.552 177.901 35.552C175.704 35.552 174.605 37.0027 174.605 39.904C174.605 41.4187 174.914 42.6027 175.533 43.456C176.152 44.3093 176.962 44.736 177.965 44.736C178.989 44.736 179.757 44.352 180.269 43.584C180.802 42.7947 181.069 41.664 181.069 40.192ZM188.667 32.512V29.024L192.987 28.192L192.571 32.512H196.443L196.091 35.136H192.443L192.283 41.824C192.283 42.8267 192.379 43.4987 192.571 43.84C192.763 44.16 193.115 44.32 193.627 44.32C194.139 44.32 194.821 44.2027 195.675 43.968L195.867 46.24C194.459 47.4133 193.221 48 192.155 48C191.088 48 190.213 47.616 189.531 46.848C188.848 46.0587 188.507 45.0347 188.507 43.776L188.699 40.192L188.667 35.136H186.459L186.811 32.512H188.667ZM197.834 41.312C197.834 38.5813 198.57 36.2667 200.042 34.368C201.514 32.4693 203.231 31.52 205.194 31.52C207.178 31.52 208.714 32.16 209.802 33.44C210.911 34.72 211.466 36.416 211.466 38.528C211.466 41.344 210.751 43.6907 209.322 45.568C207.914 47.424 206.132 48.352 203.978 48.352C202.207 48.352 200.735 47.6907 199.562 46.368C198.41 45.024 197.834 43.3387 197.834 41.312ZM207.882 40.192C207.882 37.0987 206.826 35.552 204.714 35.552C202.516 35.552 201.418 37.0027 201.418 39.904C201.418 41.4187 201.727 42.6027 202.346 43.456C202.964 44.3093 203.775 44.736 204.778 44.736C205.802 44.736 206.57 44.352 207.082 43.584C207.615 42.7947 207.882 41.664 207.882 40.192Z" fill="#310A31"/>
<defs>
<clipPath id="clip0_43_10">
<rect width="60" height="60" fill="white" transform="matrix(0 1 -1 0 77 3)"/>
</clipPath>
</defs>
</svg>
